<mxfile host="app.diagrams.net" modified="2024-02-21T20:07:19.490Z" agent="Mozilla/5.0 (Macintosh; Intel Mac OS X 10_15_7) AppleWebKit/537.36 (KHTML, like Gecko) Chrome/121.0.0.0 Safari/537.36" etag="8gb3HsesAns2I_uiRJEl" version="23.1.5" type="device">
  <diagram name="Page-1" id="e3VPnF6le7ydHKOD4WQL">
    <mxGraphModel dx="2341" dy="2020" grid="1" gridSize="10" guides="1" tooltips="1" connect="1" arrows="1" fold="1" page="1" pageScale="1" pageWidth="827" pageHeight="1169" math="0" shadow="0">
      <root>
        <mxCell id="0" />
        <mxCell id="1" parent="0" />
        <mxCell id="xlNU5MgYIxBxcxSgYDJK-37" style="edgeStyle=orthogonalEdgeStyle;rounded=0;orthogonalLoop=1;jettySize=auto;html=1;entryX=0;entryY=0.75;entryDx=0;entryDy=0;" edge="1" parent="1" source="xlNU5MgYIxBxcxSgYDJK-20" target="xlNU5MgYIxBxcxSgYDJK-34">
          <mxGeometry relative="1" as="geometry" />
        </mxCell>
        <mxCell id="xlNU5MgYIxBxcxSgYDJK-38" style="edgeStyle=orthogonalEdgeStyle;rounded=0;orthogonalLoop=1;jettySize=auto;html=1;" edge="1" parent="1" source="xlNU5MgYIxBxcxSgYDJK-20" target="xlNU5MgYIxBxcxSgYDJK-36">
          <mxGeometry relative="1" as="geometry" />
        </mxCell>
        <mxCell id="xlNU5MgYIxBxcxSgYDJK-23" value="" style="group" vertex="1" connectable="0" parent="1">
          <mxGeometry x="10" y="120" width="102.5" height="440" as="geometry" />
        </mxCell>
        <mxCell id="xlNU5MgYIxBxcxSgYDJK-7" value="" style="group" vertex="1" connectable="0" parent="xlNU5MgYIxBxcxSgYDJK-23">
          <mxGeometry width="102.5" height="440" as="geometry" />
        </mxCell>
        <mxCell id="xlNU5MgYIxBxcxSgYDJK-1" value="Legacy monolithic &lt;br&gt;applications" style="sketch=0;points=[[0,0,0],[0.25,0,0],[0.5,0,0],[0.75,0,0],[1,0,0],[0,1,0],[0.25,1,0],[0.5,1,0],[0.75,1,0],[1,1,0],[0,0.25,0],[0,0.5,0],[0,0.75,0],[1,0.25,0],[1,0.5,0],[1,0.75,0]];outlineConnect=0;fontColor=#232F3E;fillColor=#DD344C;strokeColor=#ffffff;dashed=0;verticalLabelPosition=bottom;verticalAlign=top;align=center;html=1;fontSize=12;fontStyle=0;aspect=fixed;shape=mxgraph.aws4.resourceIcon;resIcon=mxgraph.aws4.business_application;" vertex="1" parent="xlNU5MgYIxBxcxSgYDJK-7">
          <mxGeometry y="20" width="40" height="40" as="geometry" />
        </mxCell>
        <mxCell id="xlNU5MgYIxBxcxSgYDJK-2" value="" style="image;sketch=0;aspect=fixed;html=1;points=[];align=center;fontSize=12;image=img/lib/mscae/Docker.svg;" vertex="1" parent="xlNU5MgYIxBxcxSgYDJK-7">
          <mxGeometry x="35" width="50" height="41" as="geometry" />
        </mxCell>
        <mxCell id="xlNU5MgYIxBxcxSgYDJK-22" value="" style="rounded=1;whiteSpace=wrap;html=1;fillColor=none;strokeWidth=4;" vertex="1" parent="xlNU5MgYIxBxcxSgYDJK-7">
          <mxGeometry x="-39" y="-20" width="132.5" height="470" as="geometry" />
        </mxCell>
        <mxCell id="xlNU5MgYIxBxcxSgYDJK-8" value="" style="group" vertex="1" connectable="0" parent="xlNU5MgYIxBxcxSgYDJK-23">
          <mxGeometry y="110" width="85" height="60" as="geometry" />
        </mxCell>
        <mxCell id="xlNU5MgYIxBxcxSgYDJK-9" value="Legacy monolithic &lt;br&gt;applications" style="sketch=0;points=[[0,0,0],[0.25,0,0],[0.5,0,0],[0.75,0,0],[1,0,0],[0,1,0],[0.25,1,0],[0.5,1,0],[0.75,1,0],[1,1,0],[0,0.25,0],[0,0.5,0],[0,0.75,0],[1,0.25,0],[1,0.5,0],[1,0.75,0]];outlineConnect=0;fontColor=#232F3E;fillColor=#DD344C;strokeColor=#ffffff;dashed=0;verticalLabelPosition=bottom;verticalAlign=top;align=center;html=1;fontSize=12;fontStyle=0;aspect=fixed;shape=mxgraph.aws4.resourceIcon;resIcon=mxgraph.aws4.business_application;" vertex="1" parent="xlNU5MgYIxBxcxSgYDJK-8">
          <mxGeometry y="20" width="40" height="40" as="geometry" />
        </mxCell>
        <mxCell id="xlNU5MgYIxBxcxSgYDJK-10" value="" style="image;sketch=0;aspect=fixed;html=1;points=[];align=center;fontSize=12;image=img/lib/mscae/Docker.svg;" vertex="1" parent="xlNU5MgYIxBxcxSgYDJK-8">
          <mxGeometry x="35" width="50" height="41" as="geometry" />
        </mxCell>
        <mxCell id="xlNU5MgYIxBxcxSgYDJK-11" value="" style="group" vertex="1" connectable="0" parent="xlNU5MgYIxBxcxSgYDJK-23">
          <mxGeometry y="220" width="85" height="60" as="geometry" />
        </mxCell>
        <mxCell id="xlNU5MgYIxBxcxSgYDJK-12" value="Legacy monolithic &lt;br&gt;applications" style="sketch=0;points=[[0,0,0],[0.25,0,0],[0.5,0,0],[0.75,0,0],[1,0,0],[0,1,0],[0.25,1,0],[0.5,1,0],[0.75,1,0],[1,1,0],[0,0.25,0],[0,0.5,0],[0,0.75,0],[1,0.25,0],[1,0.5,0],[1,0.75,0]];outlineConnect=0;fontColor=#232F3E;fillColor=#DD344C;strokeColor=#ffffff;dashed=0;verticalLabelPosition=bottom;verticalAlign=top;align=center;html=1;fontSize=12;fontStyle=0;aspect=fixed;shape=mxgraph.aws4.resourceIcon;resIcon=mxgraph.aws4.business_application;" vertex="1" parent="xlNU5MgYIxBxcxSgYDJK-11">
          <mxGeometry y="20" width="40" height="40" as="geometry" />
        </mxCell>
        <mxCell id="xlNU5MgYIxBxcxSgYDJK-13" value="" style="image;sketch=0;aspect=fixed;html=1;points=[];align=center;fontSize=12;image=img/lib/mscae/Docker.svg;" vertex="1" parent="xlNU5MgYIxBxcxSgYDJK-11">
          <mxGeometry x="35" width="50" height="41" as="geometry" />
        </mxCell>
        <mxCell id="xlNU5MgYIxBxcxSgYDJK-14" value="" style="group" vertex="1" connectable="0" parent="xlNU5MgYIxBxcxSgYDJK-23">
          <mxGeometry y="330" width="85" height="60" as="geometry" />
        </mxCell>
        <mxCell id="xlNU5MgYIxBxcxSgYDJK-15" value="Legacy monolithic &lt;br&gt;applications" style="sketch=0;points=[[0,0,0],[0.25,0,0],[0.5,0,0],[0.75,0,0],[1,0,0],[0,1,0],[0.25,1,0],[0.5,1,0],[0.75,1,0],[1,1,0],[0,0.25,0],[0,0.5,0],[0,0.75,0],[1,0.25,0],[1,0.5,0],[1,0.75,0]];outlineConnect=0;fontColor=#232F3E;fillColor=#DD344C;strokeColor=#ffffff;dashed=0;verticalLabelPosition=bottom;verticalAlign=top;align=center;html=1;fontSize=12;fontStyle=0;aspect=fixed;shape=mxgraph.aws4.resourceIcon;resIcon=mxgraph.aws4.business_application;" vertex="1" parent="xlNU5MgYIxBxcxSgYDJK-14">
          <mxGeometry y="20" width="40" height="40" as="geometry" />
        </mxCell>
        <mxCell id="xlNU5MgYIxBxcxSgYDJK-16" value="" style="image;sketch=0;aspect=fixed;html=1;points=[];align=center;fontSize=12;image=img/lib/mscae/Docker.svg;" vertex="1" parent="xlNU5MgYIxBxcxSgYDJK-14">
          <mxGeometry x="35" width="50" height="41" as="geometry" />
        </mxCell>
        <mxCell id="xlNU5MgYIxBxcxSgYDJK-40" style="edgeStyle=orthogonalEdgeStyle;rounded=0;orthogonalLoop=1;jettySize=auto;html=1;exitX=0.5;exitY=0;exitDx=0;exitDy=0;" edge="1" parent="1" source="xlNU5MgYIxBxcxSgYDJK-25" target="xlNU5MgYIxBxcxSgYDJK-39">
          <mxGeometry relative="1" as="geometry" />
        </mxCell>
        <mxCell id="xlNU5MgYIxBxcxSgYDJK-53" value="Log the performance, health, &lt;br&gt;and availability of AKS clusters" style="edgeLabel;html=1;align=center;verticalAlign=middle;resizable=0;points=[];" vertex="1" connectable="0" parent="xlNU5MgYIxBxcxSgYDJK-40">
          <mxGeometry x="-0.1973" y="-4" relative="1" as="geometry">
            <mxPoint y="-1" as="offset" />
          </mxGeometry>
        </mxCell>
        <mxCell id="xlNU5MgYIxBxcxSgYDJK-27" style="edgeStyle=orthogonalEdgeStyle;rounded=0;orthogonalLoop=1;jettySize=auto;html=1;" edge="1" parent="1" source="xlNU5MgYIxBxcxSgYDJK-22" target="xlNU5MgYIxBxcxSgYDJK-25">
          <mxGeometry relative="1" as="geometry" />
        </mxCell>
        <mxCell id="xlNU5MgYIxBxcxSgYDJK-28" value="Azure Container Registry" style="image;aspect=fixed;html=1;points=[];align=center;fontSize=12;image=img/lib/azure2/containers/Container_Registries.svg;" vertex="1" parent="1">
          <mxGeometry x="4" y="660" width="68" height="61" as="geometry" />
        </mxCell>
        <mxCell id="xlNU5MgYIxBxcxSgYDJK-29" style="edgeStyle=orthogonalEdgeStyle;rounded=0;orthogonalLoop=1;jettySize=auto;html=1;exitX=0.5;exitY=1;exitDx=0;exitDy=0;" edge="1" parent="1" source="xlNU5MgYIxBxcxSgYDJK-22" target="xlNU5MgYIxBxcxSgYDJK-28">
          <mxGeometry relative="1" as="geometry" />
        </mxCell>
        <mxCell id="xlNU5MgYIxBxcxSgYDJK-30" value="Store and manage Docker container images" style="edgeLabel;html=1;align=center;verticalAlign=middle;resizable=0;points=[];" vertex="1" connectable="0" parent="xlNU5MgYIxBxcxSgYDJK-29">
          <mxGeometry x="-0.0165" y="-1" relative="1" as="geometry">
            <mxPoint x="-1" y="-1" as="offset" />
          </mxGeometry>
        </mxCell>
        <mxCell id="xlNU5MgYIxBxcxSgYDJK-31" value="Azure DevOps" style="image;aspect=fixed;html=1;points=[];align=center;fontSize=12;image=img/lib/azure2/devops/Azure_DevOps.svg;" vertex="1" parent="1">
          <mxGeometry x="5" y="-110" width="64" height="64" as="geometry" />
        </mxCell>
        <mxCell id="xlNU5MgYIxBxcxSgYDJK-32" style="edgeStyle=orthogonalEdgeStyle;rounded=0;orthogonalLoop=1;jettySize=auto;html=1;" edge="1" parent="1" source="xlNU5MgYIxBxcxSgYDJK-22" target="xlNU5MgYIxBxcxSgYDJK-31">
          <mxGeometry relative="1" as="geometry" />
        </mxCell>
        <mxCell id="xlNU5MgYIxBxcxSgYDJK-33" value="Implement continuous integration and &lt;br&gt;continuous deployment (CI/CD) pipelines" style="edgeLabel;html=1;align=center;verticalAlign=middle;resizable=0;points=[];" vertex="1" connectable="0" parent="xlNU5MgYIxBxcxSgYDJK-32">
          <mxGeometry x="-0.0171" y="1" relative="1" as="geometry">
            <mxPoint y="-1" as="offset" />
          </mxGeometry>
        </mxCell>
        <mxCell id="xlNU5MgYIxBxcxSgYDJK-34" value="Istio" style="sketch=0;html=1;verticalAlign=top;labelPosition=center;verticalLabelPosition=bottom;align=center;spacingTop=-6;fontSize=11;fontStyle=1;fontColor=#999999;shape=image;aspect=fixed;imageAspect=0;image=data:image/svg+xml,PHN2ZyB4bWxucz0iaHR0cDovL3d3dy53My5vcmcvMjAwMC9zdmciIHhtbG5zOnY9Imh0dHBzOi8vdmVjdGEuaW8vbmFubyIgd2lkdGg9IjE2MCIgaGVpZ2h0PSIyNDAiIHZpZXdCb3g9IjAgMCAxNjAgMjQwIj4mI3hhOwk8c3R5bGUgdHlwZT0idGV4dC9jc3MiPiYjeGE7CS5zdDB7ZmlsbDojNDY2YmIwO30mI3hhOwk8L3N0eWxlPiYjeGE7CTxwYXRoIGNsYXNzPSJzdDAiIGQ9Ik02MCAyNDBMMCAyMTBoMTYwem0wLTE2MEwwIDIwMGw2MC0xMHpNNzAgMHYxOTBsOTAgMTB6Ii8+JiN4YTs8L3N2Zz4=;" vertex="1" parent="1">
          <mxGeometry x="430" y="200" width="27" height="42" as="geometry" />
        </mxCell>
        <mxCell id="xlNU5MgYIxBxcxSgYDJK-36" value="Mesh technologies" style="sketch=0;outlineConnect=0;fontColor=#232F3E;gradientColor=none;fillColor=#8C4FFF;strokeColor=none;dashed=0;verticalLabelPosition=bottom;verticalAlign=top;align=center;html=1;fontSize=12;fontStyle=0;aspect=fixed;pointerEvents=1;shape=mxgraph.aws4.mesh;" vertex="1" parent="1">
          <mxGeometry x="418.43" y="320.5" width="50.14" height="49.5" as="geometry" />
        </mxCell>
        <mxCell id="xlNU5MgYIxBxcxSgYDJK-39" value="Azure Monitor" style="image;aspect=fixed;html=1;points=[];align=center;fontSize=12;image=img/lib/azure2/management_governance/Monitor.svg;" vertex="1" parent="1">
          <mxGeometry x="235.75" y="-30" width="64" height="64" as="geometry" />
        </mxCell>
        <mxCell id="xlNU5MgYIxBxcxSgYDJK-49" style="edgeStyle=orthogonalEdgeStyle;rounded=0;orthogonalLoop=1;jettySize=auto;html=1;entryX=-0.032;entryY=0.577;entryDx=0;entryDy=0;entryPerimeter=0;" edge="1" parent="1" source="xlNU5MgYIxBxcxSgYDJK-48" target="xlNU5MgYIxBxcxSgYDJK-22">
          <mxGeometry relative="1" as="geometry" />
        </mxCell>
        <mxCell id="xlNU5MgYIxBxcxSgYDJK-51" value="" style="group" vertex="1" connectable="0" parent="1">
          <mxGeometry x="-305" y="136" width="130" height="517" as="geometry" />
        </mxCell>
        <mxCell id="xlNU5MgYIxBxcxSgYDJK-41" value="" style="sketch=0;points=[[0,0,0],[0.25,0,0],[0.5,0,0],[0.75,0,0],[1,0,0],[0,1,0],[0.25,1,0],[0.5,1,0],[0.75,1,0],[1,1,0],[0,0.25,0],[0,0.5,0],[0,0.75,0],[1,0.25,0],[1,0.5,0],[1,0.75,0]];outlineConnect=0;fontColor=#232F3E;fillColor=#01A88D;strokeColor=#ffffff;dashed=0;verticalLabelPosition=bottom;verticalAlign=top;align=center;html=1;fontSize=12;fontStyle=0;aspect=fixed;shape=mxgraph.aws4.resourceIcon;resIcon=mxgraph.aws4.comprehend_medical;" vertex="1" parent="xlNU5MgYIxBxcxSgYDJK-51">
          <mxGeometry x="25" y="6.5" width="78" height="78" as="geometry" />
        </mxCell>
        <mxCell id="xlNU5MgYIxBxcxSgYDJK-42" value="Medical&#xa;Emergency" style="sketch=0;outlineConnect=0;fontColor=#232F3E;gradientColor=none;strokeColor=#232F3E;fillColor=#ffffff;dashed=0;verticalLabelPosition=bottom;verticalAlign=top;align=center;html=1;fontSize=12;fontStyle=0;aspect=fixed;shape=mxgraph.aws4.resourceIcon;resIcon=mxgraph.aws4.medical_emergency;" vertex="1" parent="xlNU5MgYIxBxcxSgYDJK-51">
          <mxGeometry x="34" y="124" width="60" height="60" as="geometry" />
        </mxCell>
        <mxCell id="xlNU5MgYIxBxcxSgYDJK-44" value="" style="shape=mxgraph.signs.healthcare.medical_interpreter;html=1;pointerEvents=1;fillColor=#000000;strokeColor=none;verticalLabelPosition=bottom;verticalAlign=top;align=center;" vertex="1" parent="xlNU5MgYIxBxcxSgYDJK-51">
          <mxGeometry x="15.5" y="374" width="99" height="85" as="geometry" />
        </mxCell>
        <mxCell id="xlNU5MgYIxBxcxSgYDJK-45" value="" style="shape=mxgraph.signs.healthcare.medical_library;html=1;pointerEvents=1;fillColor=#000000;strokeColor=none;verticalLabelPosition=bottom;verticalAlign=top;align=center;" vertex="1" parent="xlNU5MgYIxBxcxSgYDJK-51">
          <mxGeometry x="15.5" y="244" width="98" height="98" as="geometry" />
        </mxCell>
        <mxCell id="xlNU5MgYIxBxcxSgYDJK-46" value="Third-party &lt;br&gt;healthcare systems" style="text;html=1;align=center;verticalAlign=middle;resizable=0;points=[];autosize=1;strokeColor=none;fillColor=none;" vertex="1" parent="xlNU5MgYIxBxcxSgYDJK-51">
          <mxGeometry y="477" width="130" height="40" as="geometry" />
        </mxCell>
        <mxCell id="xlNU5MgYIxBxcxSgYDJK-48" value="" style="rounded=1;whiteSpace=wrap;html=1;fillColor=none;strokeWidth=4;" vertex="1" parent="xlNU5MgYIxBxcxSgYDJK-51">
          <mxGeometry x="3" width="120" height="470" as="geometry" />
        </mxCell>
        <mxCell id="xlNU5MgYIxBxcxSgYDJK-52" value="" style="group" vertex="1" connectable="0" parent="1">
          <mxGeometry x="207.75" y="181" width="120" height="348" as="geometry" />
        </mxCell>
        <mxCell id="xlNU5MgYIxBxcxSgYDJK-19" value="Compute resources" style="outlineConnect=0;dashed=0;verticalLabelPosition=bottom;verticalAlign=top;align=center;html=1;shape=mxgraph.aws3.dense_compute_node;fillColor=#2E73B8;gradientColor=none;" vertex="1" parent="xlNU5MgYIxBxcxSgYDJK-52">
          <mxGeometry x="32.25" y="20" width="55.5" height="63" as="geometry" />
        </mxCell>
        <mxCell id="xlNU5MgYIxBxcxSgYDJK-20" value="Networking" style="image;aspect=fixed;html=1;points=[];align=center;fontSize=12;image=img/lib/azure2/networking/Connections.svg;" vertex="1" parent="xlNU5MgYIxBxcxSgYDJK-52">
          <mxGeometry x="41" y="130" width="38" height="38" as="geometry" />
        </mxCell>
        <mxCell id="xlNU5MgYIxBxcxSgYDJK-21" value="Security" style="html=1;whiteSpace=wrap;strokeColor=none;fillColor=#0079D6;labelPosition=center;verticalLabelPosition=middle;verticalAlign=top;align=center;fontSize=12;outlineConnect=0;spacingTop=-6;fontColor=#FFFFFF;sketch=0;shape=mxgraph.sitemap.security;" vertex="1" parent="xlNU5MgYIxBxcxSgYDJK-52">
          <mxGeometry x="10" y="230" width="100" height="60" as="geometry" />
        </mxCell>
        <mxCell id="xlNU5MgYIxBxcxSgYDJK-25" value="" style="rounded=1;whiteSpace=wrap;html=1;fillColor=none;strokeWidth=4;" vertex="1" parent="xlNU5MgYIxBxcxSgYDJK-52">
          <mxGeometry width="120" height="310" as="geometry" />
        </mxCell>
        <mxCell id="xlNU5MgYIxBxcxSgYDJK-26" value="AKS clusters" style="text;html=1;align=center;verticalAlign=middle;resizable=0;points=[];autosize=1;strokeColor=none;fillColor=none;" vertex="1" parent="xlNU5MgYIxBxcxSgYDJK-52">
          <mxGeometry x="17.25" y="318" width="90" height="30" as="geometry" />
        </mxCell>
      </root>
    </mxGraphModel>
  </diagram>
</mxfile>
